<?xml version="1.0" encoding="utf-8"?>

<!-- Uploaded to: SVG Repo, www.svgrepo.com, Generator: SVG Repo Mixer Tools -->
<svg fill="#000000" height="800px" width="800px" version="1.1" id="Icons" xmlns="http://www.w3.org/2000/svg" xmlns:xlink="http://www.w3.org/1999/xlink" 
	 viewBox="0 0 32 32" xml:space="preserve">
<path d="M17.8,5.5c1.2-0.7,2.3-1.3,3.5-1.7C24.3,2.7,26.8,2.7,28,4c1,1,1.2,2.9,0.6,5.4c-0.1,0.5,0.2,1.1,0.7,1.2
	c0.5,0.1,1.1-0.2,1.2-0.7c0.9-3.2,0.5-5.7-1.1-7.3c-1.8-1.8-5-2-8.9-0.6c-1.5,0.6-3,1.4-4.6,2.3c-1.5-1-3.1-1.8-4.6-2.3
	c-3.9-1.5-7-1.3-8.9,0.6C-0.1,5.2,0.8,10.4,4.3,16c-1,1.5-1.8,3.1-2.3,4.6c-1.5,3.9-1.3,7,0.6,8.9c1,1,2.5,1.5,4.2,1.5
	c1.4,0,2.9-0.3,4.7-1c3.6-1.4,7.6-4,11.1-7.6c0.2-0.2,0.3-0.4,0.5-0.5V24c0,0.6,0.4,1,1,1s1-0.4,1-1v-5c0-0.6-0.4-1-1-1h-5
	c-0.6,0-1,0.4-1,1s0.4,1,1,1h3.1c-0.3,0.4-0.7,0.7-1,1.1c-3.3,3.3-7,5.8-10.4,7.1C7.7,29.3,5.2,29.3,4,28c-1.2-1.2-1.3-3.7-0.1-6.8
	c0.4-1.1,1-2.3,1.7-3.5c1,1.4,2.2,2.8,3.5,4.2H6c-0.6,0-1,0.4-1,1s0.4,1,1,1h5c0.6,0,1-0.4,1-1v-5c0-0.6-0.4-1-1-1s-1,0.4-1,1v2.1
	c-1.3-1.4-2.4-2.7-3.3-4.1c1.2-1.7,2.6-3.4,4.3-5.1c1.6-1.6,3.3-3.1,5.1-4.2c1.7,1.2,3.4,2.6,5.1,4.2c3.3,3.3,5.8,7,7.1,10.4
	c1.2,3.1,1.1,5.5-0.1,6.8c-1.3,1.3-4,1.3-7.3-0.1c-0.5-0.2-1.1,0-1.3,0.5c-0.2,0.5,0,1.1,0.5,1.3c2,0.8,3.8,1.2,5.3,1.2
	c1.7,0,3.2-0.5,4.2-1.5c3.6-3.6,0.6-12.4-7-19.9C21,8,19.4,6.7,17.8,5.5z M9.5,9.5c-1.5,1.5-2.8,3.1-4,4.7C2.8,9.6,2.3,5.6,4,4
	c1.2-1.2,3.7-1.3,6.8-0.1c1.1,0.4,2.3,1,3.5,1.7C12.6,6.7,11,8,9.5,9.5z"/>
</svg>